# xmcd CD database file
#
# Track frame offsets:
#	150
#	19308
#	30923
#	51301
#	73107
#	91404
#	113135
#	135819
#	156798
#	175085
#
# Disc length: 2597 seconds
#
# Revision: 1
# Processed by: cddbd v1.4PL0 Copyright (c) Steve Scherf et al.
# Submitted via: CDex 1.40Release
#
DISCID=780a230a
DTITLE=EDDIE and NINIE - TROUBLE IN MIND
DYEAR=1900
DGENRE=Country
TTITLE0=Les haricots
TTITLE1=devil in disguise
TTITLE2=body and soul
TTITLE3='ti kaz
TTITLE4=jambalaya
TTITLE5=tchoo tchoo train
TTITLE6=les bar-jo's
TTITLE7=a hundred and ten in the shade
TTITLE8=oh darlin'
TTITLE9=trouble in mind
EXTD=ID3G: 2
EXTT0=
EXTT1=
EXTT2=
EXTT3=
EXTT4=
EXTT5=
EXTT6=
EXTT7=
EXTT8=
EXTT9=
PLAYORDER=
